<?xml version="1.0" encoding="utf-8"?>
<svg id="Слой_1" data-name="Слой 1" viewBox="415.8 349 248.4 320.4" xmlns="http://www.w3.org/2000/svg">
  <path d="M606.4,519.4c0-40.38-32.59-65-62.66-65-29.88,0-62.47,24.63-62.47,65,0,37.72,27.93,61.61,55.78,65-1.1,25-7.55,34.87-16.11,41.19v2.31c15-6.46,26.52-13.14,28-43.33C577.48,581.85,606.4,557.78,606.4,519.4Zm-107.75-.18c0-35.36,19.07-57.76,38.59-61.9V505.6c-.54,15.2,0,60.27,0,60.27v10.57c0,1.87,0,3.66-.08,5.38C517.67,577.63,498.65,555.18,498.65,519.22Zm50.44,62.83c0-1.51.08-3.06.08-4.68l0-120.31C569.2,460.38,589,481.9,589,518,589,554.7,569.16,578.42,549.09,582.05Z"/>
  <path d="M547.44,427.77A103.47,103.47,0,0,0,554,416.14c1.43-2.88,2.36-6.12.81-9.2-3.5-7-7.25-13.81-11.1-21.1-.56.91-1,1.49-1.29,2.11-3,5.88-6.06,11.78-9.15,17.64-1.35,2.55-2,5.18-.72,7.84a105.85,105.85,0,0,0,6.25,12.35c3.85,6.07,6.32,12,1,18.42-.05.07-.05.17-.1.25-1.25,2.15-.88,4.16,1,5.57a4.43,4.43,0,0,0,6-.13c2-1.75,2.12-3.75.63-5.79C543.36,438.61,543.71,433.31,547.44,427.77Z"/>
  <path d="M549.76,440,575,407.17C559.35,409.18,548.64,423.36,549.76,440Z"/>
  <path d="M512.64,407.45l25.28,32.82C539,423.64,528.32,409.46,512.64,407.45Z"/>
</svg>