<svg id="Слой_1" data-name="Слой 1" xmlns="http://www.w3.org/2000/svg" viewBox="0 0 1080 1080"><defs><style>.cls-1{fill:#430103;}.cls-2{fill:#eeeae1;}</style></defs><rect class="cls-1" x="-2.21" y="-6.89" width="1087.66" height="1096.85"/><path class="cls-2" d="M441.74,563.18c0,28.08-22.46,45.05-43.17,45.05s-43.05-17-43.05-45.05c0-27.82,22.46-44.79,43.05-44.79S441.74,535.36,441.74,563.18Zm-74.24-.12c0,27.57,16.22,43.67,31.07,43.67s31.19-17,31.19-44.54c0-27.08-16.22-42.3-31.19-42.3S367.5,536,367.5,563.06Z"/><path class="cls-2" d="M444.85,607V519.64h10L494,604.23V519.64h1.25V607h-10l-39.18-84.6V607Z"/><path class="cls-2" d="M502.11,607V519.64H509V607Z"/><path class="cls-2" d="M579.73,558.19a24,24,0,0,0-5.62-.75c-13.47,0-18.21,13.23-18.21,24.33,0,14,6,25,20.09,25,18,0,28.45-13.73,30.19-30.45-1.5,3.37-5.11,6-10.23,6.12-6.11,0-12.1-4.62-12.1-13.35,0-26.7,38.18-9.61,33.81-28.95h1.25c2.87,12.48-5.37,15.47-14.35,17.34,5.12,7.86,4.37,27.58-5,39.56-6.74,8.48-17.34,11.23-26.33,11.23-19.59,0-29.32-12.86-29.32-25.83,0-12.6,9.23-27.33,28.82-26.45-10.1-2.87-20.09-10.48-20.09-20.34,0-9.23,8.74-17.22,19.84-17.22a24.18,24.18,0,0,1,20.72,11.23l-6,8c.12-14.22-7.12-17.71-12.11-17.71-9,0-10.48,8.61-10.48,14.22,0,13.35,8.36,20,15.47,22.83Zm23.46-.5c-8.74,1.88-17.84,3-17.84,11.36,0,7.73,5,12.1,10.48,12.1,6-.12,9.6-3.87,10.6-8C606.68,566.68,605.56,560.81,603.19,557.69Z"/><path class="cls-2" d="M732.53,554.38c-13,0-27.34,10.15-27.34,26.82a26.11,26.11,0,0,0,10.67,21.38,32.13,32.13,0,0,1-15.48,4.15c-18,0-34.56-16.1-34.56-43.67,0-27.08,16.6-43.17,31.94-43.17,11.73,0,22,8.73,25.33,24.7h10c-4-16.59-20.58-26.2-36.18-26.2-20.59,0-43,17-43,44.79,0,28.08,22.46,45.05,43,45.05a38.79,38.79,0,0,0,19.84-5.05,28.2,28.2,0,0,0,15.8,5.05c13,0,27.33-10.15,27.33-27C759.86,564.53,745.57,554.38,732.53,554.38Zm0,52.6c-9.12,0-19.06-9.52-19.06-25.78,0-16.05,9.94-25.58,19.06-25.58s19.05,9,19.05,25.06C751.58,596.94,741.64,607,732.53,607Z"/><path class="cls-2" d="M340.05,546.1v38.17c0,16.72-4.74,22.71-11.23,26.45V612c11.1-3.74,21.21-7.61,21.21-27.2V519.64h-10"/><path class="cls-2" d="M347.35,500a70.54,70.54,0,0,0,4.5-8c1-2,1.63-4.22.56-6.34-2.41-4.8-5-9.51-7.65-14.54-.38.63-.66,1-.88,1.45-2.11,4-4.18,8.12-6.31,12.16a5.84,5.84,0,0,0-.49,5.4,72.14,72.14,0,0,0,4.3,8.51c2.65,4.18,4.35,8.23.72,12.69,0,.05,0,.12-.07.18a2.68,2.68,0,0,0,.7,3.83,3.05,3.05,0,0,0,4.13-.09,2.67,2.67,0,0,0,.43-4C344.53,507.45,344.78,503.8,347.35,500Z"/><path class="cls-2" d="M348.94,508.4l17.42-22.61C355.56,487.18,348.18,496.94,348.94,508.4Z"/><path class="cls-2" d="M323.37,486l17.42,22.61C341.55,497.14,334.17,487.37,323.37,486Z"/></svg>