<svg id="Слой_1" data-name="Слой 1" xmlns="http://www.w3.org/2000/svg" viewBox="0 0 1080 1080"><path d="M432.69,500.62c0,30.34-24.26,48.67-46.64,48.67S339.53,531,339.53,500.62c0-30.06,24.27-48.4,46.52-48.4S432.69,470.56,432.69,500.62Zm-80.21-.13c0,29.79,17.52,47.18,33.57,47.18s33.7-18.33,33.7-48.13c0-29.25-17.53-45.7-33.7-45.7S352.48,471.23,352.48,500.49Z"/><path d="M436.06,547.94V453.57h10.78L489.18,545V453.57h1.34v94.37H479.74l-42.33-91.4v91.4Z"/><path d="M497.93,547.94V453.57h7.42v94.37Z"/><path d="M581.79,495.23a25.92,25.92,0,0,0-6.07-.81c-14.56,0-19.68,14.29-19.68,26.29,0,15.1,6.47,27,21.71,27,19.41,0,30.73-14.83,32.62-32.89-1.62,3.64-5.52,6.47-11,6.6-6.61,0-13.08-5-13.08-14.42,0-28.85,41.25-10.38,36.54-31.28h1.34c3.1,13.48-5.79,16.72-15.5,18.74,5.53,8.49,4.72,29.79-5.39,42.74-7.28,9.16-18.74,12.13-28.45,12.13-21.17,0-31.68-13.89-31.68-27.91,0-13.61,10-29.52,31.14-28.58-10.92-3.1-21.7-11.32-21.7-22,0-10,9.43-18.61,21.43-18.61a26.1,26.1,0,0,1,22.38,12.14L589.88,473c.13-15.36-7.68-19.14-13.08-19.14-9.7,0-11.32,9.3-11.32,15.37,0,14.42,9,21.57,16.72,24.67Zm25.35-.54c-9.44,2-19.28,3.23-19.28,12.27,0,8.36,5.39,13.08,11.32,13.08,6.47-.14,10.38-4.18,11.46-8.63C610.91,504.4,609.7,498.06,607.14,494.69Z"/><path d="M746.88,491.11c-14.09,0-29.54,11-29.54,29a28.23,28.23,0,0,0,11.54,23.1,34.67,34.67,0,0,1-16.73,4.48c-19.41,0-37.34-17.39-37.34-47.18,0-29.26,17.93-46.65,34.51-46.65,12.68,0,23.73,9.44,27.37,26.69h10.79c-4.32-17.93-22.25-28.31-39.1-28.31-22.24,0-46.51,18.34-46.51,48.4,0,30.34,24.27,48.67,46.51,48.67a42,42,0,0,0,21.44-5.45,30.47,30.47,0,0,0,17.06,5.45c14.1,0,29.54-11,29.54-29.2C776.42,502.07,761,491.11,746.88,491.11Zm0,56.84c-9.84,0-20.58-10.3-20.58-27.86,0-17.35,10.74-27.64,20.58-27.64s20.59,9.73,20.59,27.08C767.47,537.09,756.73,548,746.88,548Z"/><path d="M322.82,482.17v41.24c0,18.06-5.12,24.53-12.13,28.58v1.34c12-4,22.91-8.22,22.91-29.39V453.57H322.82"/><path d="M330.71,432.33a77.91,77.91,0,0,0,4.86-8.65c1.07-2.15,1.76-4.56.6-6.86-2.6-5.18-5.39-10.27-8.26-15.7-.41.67-.72,1.1-1,1.57-2.27,4.37-4.51,8.77-6.81,13.13-1,1.9-1.45,3.86-.53,5.84a79.13,79.13,0,0,0,4.65,9.19c2.87,4.52,4.7,8.9.77,13.72,0,0,0,.12-.07.18a2.91,2.91,0,0,0,.75,4.15,3.31,3.31,0,0,0,4.47-.1,2.9,2.9,0,0,0,.47-4.31C327.67,440.4,327.93,436.46,330.71,432.33Z"/><path d="M332.43,441.43,351.25,417C339.57,418.5,331.6,429.05,332.43,441.43Z"/><path d="M304.8,417.21l18.81,24.43C324.44,429.26,316.47,418.7,304.8,417.21Z"/></svg>